<svg xmlns="http://www.w3.org/2000/svg" viewBox="0 0 640 360" role="img" aria-labelledby="title desc">
  <title id="title">Textured Thick Lineart grit example</title>
  <desc id="desc">Angular contour lines with stippled shading highlighting the gritty quality of the Textured Thick Lineart brush.</desc>
  <rect width="640" height="360" fill="#fdfbf7" />
  <g transform="translate(110,60)" fill="none" stroke="#2e2a2b" stroke-width="5" stroke-linejoin="round" stroke-linecap="round" opacity="0.7">
    <path d="M0 160 Q90 0 220 80 Q300 130 320 220" />
    <path d="M40 120 Q140 60 220 120" />
    <path d="M80 200 Q160 140 260 200" />
  </g>
  <g transform="translate(110,60)" stroke="#2e2a2b" stroke-width="3" stroke-linecap="round" opacity="0.3">
    <line x1="60" y1="220" x2="180" y2="260" />
    <line x1="180" y1="260" x2="260" y2="240" />
  </g>
  <g transform="translate(110,60)" fill="#2e2a2b" opacity="0.18">
    <circle cx="90" cy="180" r="6" />
    <circle cx="120" cy="190" r="5" />
    <circle cx="150" cy="210" r="4" />
    <circle cx="200" cy="180" r="5" />
    <circle cx="240" cy="210" r="4" />
    <circle cx="260" cy="150" r="5" />
    <circle cx="210" cy="110" r="4" />
    <circle cx="180" cy="140" r="5" />
  </g>
  <text x="320" y="40" text-anchor="middle" font-family="'Segoe UI',sans-serif" font-size="18" fill="#2f2b2c">Gritty contour with stippled edge</text>
</svg>
