<svg xmlns="http://www.w3.org/2000/svg" xmlns:xlink="http://www.w3.org/1999/xlink" width="384" height="288" viewBox="0 0 288 216" role="img" aria-labelledby="title-exec-summary-diagram desc-exec-summary-diagram">
  <title id="title-exec-summary-diagram">Bar chart comparing working memory index across FASD, ADHD, and control groups, with bars rising from roughly 80 to 110</title>
  <desc id="desc-exec-summary-diagram">Executive summary bar chart compares working memory index scores: FASD near 80, ADHD around 90, and Control close to 110 on the shared 0–120 scale.</desc><defs><style>*{stroke-linejoin:round;stroke-linecap:butt}</style></defs><g id="figure_1"><path id="patch_1" d="M0 216h288V0H0z" style="fill:#fff"/><g id="axes_1"><path id="patch_2" d="M50.87 188.12H277.2V26.88H50.87z" style="fill:#fff"/><path id="patch_3" d="M61.158 188.12h58.787V80.627H61.158z" clip-path="url(#pc08dcdfd47)" style="fill:#4c72b0"/><path id="patch_4" d="M134.641 188.12h58.788V67.19H134.64z" clip-path="url(#pc08dcdfd47)" style="fill:#55a868"/><path id="patch_5" d="M208.125 188.12h58.787V40.317h-58.787z" clip-path="url(#pc08dcdfd47)" style="fill:#c44e52"/><g id="matplotlib.axis_1"><g id="xtick_1"><g id="line2d_1"><defs><path id="mb0b37517d4" d="M0 0v3.5" style="stroke:#000;stroke-width:.8"/></defs><use xlink:href="#mb0b37517d4" x="90.551" y="188.12" style="stroke:#000;stroke-width:.8"/></g><g id="text_1" transform="matrix(.1 0 0 -.1 77.687 202.718)"><defs><path id="DejaVuSans-46" d="M628 4666h2681v-532H1259V2759h1850v-531H1259V0H628z" transform="scale(.01563)"/><path id="DejaVuSans-41" d="m2188 4044-857-2322h1716zm-357 622h716L4325 0h-656l-425 1197H1141L716 0H50z" transform="scale(.01563)"/><path id="DejaVuSans-53" d="M3425 4513v-616q-359 172-678 256-319 85-616 85-515 0-795-200t-280-569q0-310 186-468 186-157 705-254l381-78q706-135 1042-474t336-907q0-679-455-1029Q2797-91 1919-91q-331 0-705 75-373 75-773 222v650q384-215 753-325 369-109 725-109 540 0 834 212 294 213 294 607 0 343-211 537t-692 291l-385 75q-706 140-1022 440-315 300-315 835 0 619 436 975t1201 356q329 0 669-60 341-59 697-177" transform="scale(.01563)"/><path id="DejaVuSans-44" d="M1259 4147V519h763q966 0 1414 437 448 438 448 1382 0 937-448 1373t-1414 436zm-631 519h1297q1356 0 1990-564 635-564 635-1764 0-1207-638-1773Q3275 0 1925 0H628z" transform="scale(.01563)"/></defs><use xlink:href="#DejaVuSans-46"/><use xlink:href="#DejaVuSans-41" transform="translate(48.395)"/><use xlink:href="#DejaVuSans-53" transform="translate(116.803)"/><use xlink:href="#DejaVuSans-44" transform="translate(180.28)"/></g></g><g id="xtick_2"><use xlink:href="#mb0b37517d4" id="line2d_2" x="164.035" y="188.12" style="stroke:#000;stroke-width:.8"/><g id="text_2" transform="matrix(.1 0 0 -.1 149.155 202.718)"><defs><path id="DejaVuSans-48" d="M628 4666h631V2753h2294v1913h631V0h-631v2222H1259V0H628z" transform="scale(.01563)"/></defs><use xlink:href="#DejaVuSans-41"/><use xlink:href="#DejaVuSans-44" transform="translate(68.408)"/><use xlink:href="#DejaVuSans-48" transform="translate(145.41)"/><use xlink:href="#DejaVuSans-44" transform="translate(220.605)"/></g></g><g id="xtick_3"><use xlink:href="#mb0b37517d4" id="line2d_3" x="237.519" y="188.12" style="stroke:#000;stroke-width:.8"/><g id="text_3" transform="matrix(.1 0 0 -.1 219.448 202.718)"><defs><path id="DejaVuSans-43" d="M4122 4306v-665q-319 297-680 443-361 147-767 147-800 0-1225-489t-425-1414q0-922 425-1411t1225-489q406 0 767 147t680 444V359q-331-225-702-338-370-112-782-112-1060 0-1670 648-609 649-609 1771 0 1125 609 1773 610 649 1670 649 418 0 788-111 371-111 696-333" transform="scale(.01563)"/><path id="DejaVuSans-6f" d="M1959 3097q-462 0-731-361t-269-989 267-989q268-361 733-361 460 0 728 362 269 363 269 988 0 622-269 986-268 364-728 364m0 487q750 0 1178-488 429-487 429-1349 0-859-429-1349Q2709-91 1959-91q-753 0-1180 489-426 490-426 1349 0 862 426 1349 427 488 1180 488" transform="scale(.01563)"/><path id="DejaVuSans-6e" d="M3513 2113V0h-575v2094q0 497-194 743-194 247-581 247-466 0-735-297-269-296-269-809V0H581v3500h578v-544q207 316 486 472 280 156 646 156 603 0 912-373 310-373 310-1098" transform="scale(.01563)"/><path id="DejaVuSans-74" d="M1172 4494v-994h1184v-447H1172V1153q0-428 117-550t477-122h590V0h-590q-666 0-919 248-253 249-253 905v1900H172v447h422v994z" transform="scale(.01563)"/><path id="DejaVuSans-72" d="M2631 2963q-97 56-211 82-114 27-251 27-488 0-749-317t-261-911V0H581v3500h578v-544q182 319 472 473 291 155 707 155 59 0 131-8 72-7 159-23z" transform="scale(.01563)"/><path id="DejaVuSans-6c" d="M603 4863h575V0H603z" transform="scale(.01563)"/></defs><use xlink:href="#DejaVuSans-43"/><use xlink:href="#DejaVuSans-6f" transform="translate(69.824)"/><use xlink:href="#DejaVuSans-6e" transform="translate(131.006)"/><use xlink:href="#DejaVuSans-74" transform="translate(194.385)"/><use xlink:href="#DejaVuSans-72" transform="translate(233.594)"/><use xlink:href="#DejaVuSans-6f" transform="translate(272.457)"/><use xlink:href="#DejaVuSans-6c" transform="translate(333.639)"/></g></g></g><g id="matplotlib.axis_2"><g id="ytick_1"><g id="line2d_4"><defs><path id="m4aa001a41a" d="M0 0h-3.5" style="stroke:#000;stroke-width:.8"/></defs><use xlink:href="#m4aa001a41a" x="50.87" y="188.12" style="stroke:#000;stroke-width:.8"/></g><g id="text_4" transform="matrix(.1 0 0 -.1 37.508 191.92)"><defs><path id="DejaVuSans-30" d="M2034 4250q-487 0-733-480-245-479-245-1442 0-959 245-1439 246-480 733-480 491 0 736 480 246 480 246 1439 0 963-246 1442-245 480-736 480m0 500q785 0 1199-621 414-620 414-1801 0-1178-414-1799Q2819-91 2034-91q-784 0-1198 620-414 621-414 1799 0 1181 414 1801 414 621 1198 621" transform="scale(.01563)"/></defs><use xlink:href="#DejaVuSans-30"/></g></g><g id="ytick_2"><use xlink:href="#m4aa001a41a" id="line2d_5" x="50.87" y="161.247" style="stroke:#000;stroke-width:.8"/><g id="text_5" transform="matrix(.1 0 0 -.1 31.145 165.046)"><defs><path id="DejaVuSans-32" d="M1228 531h2203V0H469v531q359 372 979 998 621 627 780 809 303 340 423 576 121 236 121 464 0 372-261 606-261 235-680 235-297 0-627-103-329-103-704-313v638q381 153 712 231 332 78 607 78 725 0 1156-363 431-362 431-968 0-288-108-546-107-257-392-607-78-91-497-524-418-433-1181-1211" transform="scale(.01563)"/></defs><use xlink:href="#DejaVuSans-32"/><use xlink:href="#DejaVuSans-30" transform="translate(63.623)"/></g></g><g id="ytick_3"><use xlink:href="#m4aa001a41a" id="line2d_6" x="50.87" y="134.373" style="stroke:#000;stroke-width:.8"/><g id="text_6" transform="matrix(.1 0 0 -.1 31.145 138.173)"><defs><path id="DejaVuSans-34" d="M2419 4116 825 1625h1594zm-166 550h794V1625h666v-525h-666V0h-628v1100H313v609z" transform="scale(.01563)"/></defs><use xlink:href="#DejaVuSans-34"/><use xlink:href="#DejaVuSans-30" transform="translate(63.623)"/></g></g><g id="ytick_4"><use xlink:href="#m4aa001a41a" id="line2d_7" x="50.87" y="107.5" style="stroke:#000;stroke-width:.8"/><g id="text_7" transform="matrix(.1 0 0 -.1 31.145 111.3)"><defs><path id="DejaVuSans-36" d="M2113 2584q-425 0-674-291-248-290-248-796 0-503 248-796 249-292 674-292t673 292q248 293 248 796 0 506-248 796-248 291-673 291m1253 1979v-575q-238 112-480 171-242 60-480 60-625 0-955-422-329-422-376-1275 184 272 462 417 279 145 613 145 703 0 1111-427 408-426 408-1160 0-719-425-1154Q2819-91 2113-91q-810 0-1238 620-428 621-428 1799 0 1106 525 1764t1409 658q238 0 480-47t505-140" transform="scale(.01563)"/></defs><use xlink:href="#DejaVuSans-36"/><use xlink:href="#DejaVuSans-30" transform="translate(63.623)"/></g></g><g id="ytick_5"><use xlink:href="#m4aa001a41a" id="line2d_8" x="50.87" y="80.627" style="stroke:#000;stroke-width:.8"/><g id="text_8" transform="matrix(.1 0 0 -.1 31.145 84.426)"><defs><path id="DejaVuSans-38" d="M2034 2216q-450 0-708-241-257-241-257-662 0-422 257-663 258-241 708-241t709 242q260 243 260 662 0 421-258 662-257 241-711 241m-631 268q-406 100-633 378-226 279-226 679 0 559 398 884 399 325 1092 325 697 0 1094-325t397-884q0-400-227-679-226-278-629-378 456-106 710-416 255-309 255-755 0-679-414-1042Q2806-91 2034-91q-771 0-1186 362-414 363-414 1042 0 446 256 755 257 310 713 416m-231 997q0-362 226-565 227-203 636-203 407 0 636 203 230 203 230 565 0 363-230 566-229 203-636 203-409 0-636-203-226-203-226-566" transform="scale(.01563)"/></defs><use xlink:href="#DejaVuSans-38"/><use xlink:href="#DejaVuSans-30" transform="translate(63.623)"/></g></g><g id="ytick_6"><use xlink:href="#m4aa001a41a" id="line2d_9" x="50.87" y="53.753" style="stroke:#000;stroke-width:.8"/><g id="text_9" transform="matrix(.1 0 0 -.1 24.782 57.553)"><defs><path id="DejaVuSans-31" d="M794 531h1031v3560L703 3866v575l1116 225h631V531h1031V0H794z" transform="scale(.01563)"/></defs><use xlink:href="#DejaVuSans-31"/><use xlink:href="#DejaVuSans-30" transform="translate(63.623)"/><use xlink:href="#DejaVuSans-30" transform="translate(127.246)"/></g></g><g id="ytick_7"><use xlink:href="#m4aa001a41a" id="line2d_10" x="50.87" y="26.88" style="stroke:#000;stroke-width:.8"/><g id="text_10" transform="matrix(.1 0 0 -.1 24.782 30.68)"><use xlink:href="#DejaVuSans-31"/><use xlink:href="#DejaVuSans-32" transform="translate(63.623)"/><use xlink:href="#DejaVuSans-30" transform="translate(127.246)"/></g></g><g id="text_11" transform="matrix(0 -.1 -.1 0 18.703 165.172)"><defs><path id="DejaVuSans-57" d="M213 4666h637l981-3944 978 3944h710l981-3944 978 3944h641L4947 0h-794l-984 4050L2175 0h-794z" transform="scale(.01563)"/><path id="DejaVuSans-6b" d="M581 4863h578V1991l1716 1509h734L1753 1863 3688 0h-750L1159 1709V0H581z" transform="scale(.01563)"/><path id="DejaVuSans-69" d="M603 3500h575V0H603zm0 1363h575v-729H603z" transform="scale(.01563)"/><path id="DejaVuSans-67" d="M2906 1791q0 625-258 968-257 344-723 344-462 0-720-344-258-343-258-968 0-622 258-966t720-344q466 0 723 344 258 344 258 966m575-1357q0-893-397-1329-396-436-1215-436-303 0-572 45t-522 139v559q253-137 500-202 247-66 503-66 566 0 847 295t281 892v285q-178-310-456-463T1784 0Q1141 0 747 490 353 981 353 1791q0 812 394 1302 394 491 1037 491 388 0 666-153t456-462v531h575z" transform="scale(.01563)"/><path id="DejaVuSans-4d" d="M628 4666h941l1190-3175 1197 3175h941V0h-616v4097L3078 897h-634L1241 4097V0H628z" transform="scale(.01563)"/><path id="DejaVuSans-65" d="M3597 1894v-281H953q38-594 358-905t892-311q331 0 642 81t618 244V178Q3153 47 2828-22t-659-69q-838 0-1327 487-489 488-489 1320 0 859 464 1363 464 505 1252 505 706 0 1117-455 411-454 411-1235m-575 169q-6 471-264 752-258 282-683 282-481 0-770-272t-333-766z" transform="scale(.01563)"/><path id="DejaVuSans-6d" d="M3328 2828q216 388 516 572t706 184q547 0 844-383 297-382 297-1088V0h-578v2094q0 503-179 746-178 244-543 244-447 0-707-297-259-296-259-809V0h-578v2094q0 506-178 748t-550 242q-441 0-701-298-259-298-259-808V0H581v3500h578v-544q197 322 472 475t653 153q382 0 649-194 267-193 395-562" transform="scale(.01563)"/><path id="DejaVuSans-79" d="M2059-325q-243-625-475-815-231-191-618-191H506v481h338q237 0 368 113 132 112 291 531l103 262L191 3500h609L1894 763l1094 2737h609z" transform="scale(.01563)"/><path id="DejaVuSans-49" d="M628 4666h631V0H628z" transform="scale(.01563)"/><path id="DejaVuSans-64" d="M2906 2969v1894h575V0h-575v525q-181-312-458-464-276-152-664-152-634 0-1033 506-398 507-398 1332t398 1331q399 506 1033 506 388 0 664-152 277-151 458-463M947 1747q0-634 261-995t717-361 718 361q263 361 263 995t-263 995q-262 361-718 361t-717-361-261-995" transform="scale(.01563)"/><path id="DejaVuSans-78" d="M3513 3500 2247 1797 3578 0h-678L1881 1375 863 0H184l1360 1831L300 3500h678l928-1247 928 1247z" transform="scale(.01563)"/></defs><use xlink:href="#DejaVuSans-57"/><use xlink:href="#DejaVuSans-6f" transform="translate(93.002)"/><use xlink:href="#DejaVuSans-72" transform="translate(154.184)"/><use xlink:href="#DejaVuSans-6b" transform="translate(195.297)"/><use xlink:href="#DejaVuSans-69" transform="translate(253.207)"/><use xlink:href="#DejaVuSans-6e" transform="translate(280.99)"/><use xlink:href="#DejaVuSans-67" transform="translate(344.37)"/><use xlink:href="#DejaVuSans-4d" transform="translate(439.633)"/><use xlink:href="#DejaVuSans-65" transform="translate(525.912)"/><use xlink:href="#DejaVuSans-6d" transform="translate(587.436)"/><use xlink:href="#DejaVuSans-6f" transform="translate(684.848)"/><use xlink:href="#DejaVuSans-72" transform="translate(746.03)"/><use xlink:href="#DejaVuSans-79" transform="translate(787.143)"/><use xlink:href="#DejaVuSans-49" transform="translate(878.11)"/><use xlink:href="#DejaVuSans-6e" transform="translate(907.602)"/><use xlink:href="#DejaVuSans-64" transform="translate(970.98)"/><use xlink:href="#DejaVuSans-65" transform="translate(1034.457)"/><use xlink:href="#DejaVuSans-78" transform="translate(1094.23)"/></g></g><path id="patch_6" d="M50.87 188.12V26.88" style="fill:none;stroke:#000;stroke-width:.8;stroke-linejoin:miter;stroke-linecap:square"/><path id="patch_7" d="M277.2 188.12V26.88" style="fill:none;stroke:#000;stroke-width:.8;stroke-linejoin:miter;stroke-linecap:square"/><path id="patch_8" d="M50.87 188.12H277.2" style="fill:none;stroke:#000;stroke-width:.8;stroke-linejoin:miter;stroke-linecap:square"/><path id="patch_9" d="M50.87 26.88H277.2" style="fill:none;stroke:#000;stroke-width:.8;stroke-linejoin:miter;stroke-linecap:square"/><g id="text_12" transform="matrix(.1 0 0 -.1 84.189 76.596)"><use xlink:href="#DejaVuSans-38"/><use xlink:href="#DejaVuSans-30" transform="translate(63.623)"/></g><g id="text_13" transform="matrix(.1 0 0 -.1 157.673 63.159)"><defs><path id="DejaVuSans-39" d="M703 97v575q238-113 481-172 244-59 479-59 625 0 954 420 330 420 377 1277-181-269-460-413-278-144-615-144-700 0-1108 423-408 424-408 1159 0 718 425 1152 425 435 1131 435 810 0 1236-621 427-620 427-1801 0-1103-524-1761Q2575-91 1691-91q-238 0-482 47Q966 3 703 97m1256 1978q425 0 673 290 249 291 249 798 0 503-249 795-248 292-673 292t-673-292-248-795q0-507 248-798 248-290 673-290" transform="scale(.01563)"/></defs><use xlink:href="#DejaVuSans-39"/><use xlink:href="#DejaVuSans-30" transform="translate(63.623)"/></g><g id="text_14" transform="matrix(.1 0 0 -.1 227.975 36.286)"><use xlink:href="#DejaVuSans-31"/><use xlink:href="#DejaVuSans-31" transform="translate(63.623)"/><use xlink:href="#DejaVuSans-30" transform="translate(127.246)"/></g><g id="text_15" transform="matrix(.12 0 0 -.12 61.983 20.88)"><defs><path id="DejaVuSans-63" d="M3122 3366v-538q-244 135-489 202t-495 67q-560 0-870-355-309-354-309-995t309-996q310-354 870-354 250 0 495 67t489 202V134Q2881 22 2623-34q-257-57-548-57-791 0-1257 497-465 497-465 1341 0 856 470 1346 471 491 1290 491 265 0 518-55 253-54 491-163" transform="scale(.01563)"/><path id="DejaVuSans-73" d="M2834 3397v-544q-243 125-506 187-262 63-544 63-428 0-642-131t-214-394q0-200 153-314t616-217l197-44q612-131 870-370t258-667q0-488-386-773Q2250-91 1575-91q-281 0-586 55T347 128v594q319-166 628-249 309-82 613-82 406 0 624 139 219 139 219 392 0 234-158 359-157 125-692 241l-200 47q-534 112-772 345-237 233-237 639 0 494 350 762 350 269 994 269 318 0 599-47 282-46 519-140" transform="scale(.01563)"/><path id="DejaVuSans-62" d="M3116 1747q0 634-261 995t-717 361q-457 0-718-361t-261-995 261-995 718-361q456 0 717 361t261 995M1159 2969q182 312 458 463 277 152 661 152 638 0 1036-506 399-506 399-1331T3314 415Q2916-91 2278-91q-384 0-661 152-276 152-458 464V0H581v4863h578z" transform="scale(.01563)"/><path id="DejaVuSans-47" d="M3809 666v1253H2778v519h1656V434q-365-259-806-392-440-133-940-133-1094 0-1712 639-617 640-617 1780 0 1144 617 1783 618 639 1712 639 456 0 867-113 411-112 758-331v-672q-350 297-744 447t-828 150q-857 0-1287-478-429-478-429-1425 0-944 429-1422 430-478 1287-478 334 0 596 58 263 58 472 180" transform="scale(.01563)"/><path id="DejaVuSans-75" d="M544 1381v2119h575V1403q0-497 193-746 194-248 582-248 465 0 735 297 271 297 271 810v1984h575V0h-575v538q-209-319-486-474-276-155-642-155-603 0-916 375-312 375-312 1097m1447 2203" transform="scale(.01563)"/><path id="DejaVuSans-70" d="M1159 525v-1856H581v4831h578v-531q182 312 458 463 277 152 661 152 638 0 1036-506 399-506 399-1331T3314 415Q2916-91 2278-91q-384 0-661 152-276 152-458 464m1957 1222q0 634-261 995t-717 361q-457 0-718-361t-261-995 261-995 718-361q456 0 717 361t261 995" transform="scale(.01563)"/></defs><use xlink:href="#DejaVuSans-57"/><use xlink:href="#DejaVuSans-6f" transform="translate(93.002)"/><use xlink:href="#DejaVuSans-72" transform="translate(154.184)"/><use xlink:href="#DejaVuSans-6b" transform="translate(195.297)"/><use xlink:href="#DejaVuSans-69" transform="translate(253.207)"/><use xlink:href="#DejaVuSans-6e" transform="translate(280.99)"/><use xlink:href="#DejaVuSans-67" transform="translate(344.37)"/><use xlink:href="#DejaVuSans-4d" transform="translate(439.633)"/><use xlink:href="#DejaVuSans-65" transform="translate(525.912)"/><use xlink:href="#DejaVuSans-6d" transform="translate(587.436)"/><use xlink:href="#DejaVuSans-6f" transform="translate(684.848)"/><use xlink:href="#DejaVuSans-72" transform="translate(746.03)"/><use xlink:href="#DejaVuSans-79" transform="translate(787.143)"/><use xlink:href="#DejaVuSans-53" transform="translate(878.11)"/><use xlink:href="#DejaVuSans-63" transform="translate(941.586)"/><use xlink:href="#DejaVuSans-6f" transform="translate(996.566)"/><use xlink:href="#DejaVuSans-72" transform="translate(1057.748)"/><use xlink:href="#DejaVuSans-65" transform="translate(1096.611)"/><use xlink:href="#DejaVuSans-73" transform="translate(1158.135)"/><use xlink:href="#DejaVuSans-62" transform="translate(1242.021)"/><use xlink:href="#DejaVuSans-79" transform="translate(1305.498)"/><use xlink:href="#DejaVuSans-47" transform="translate(1396.465)"/><use xlink:href="#DejaVuSans-72" transform="translate(1473.955)"/><use xlink:href="#DejaVuSans-6f" transform="translate(1512.818)"/><use xlink:href="#DejaVuSans-75" transform="translate(1574)"/><use xlink:href="#DejaVuSans-70" transform="translate(1637.379)"/></g></g></g><defs><clipPath id="pc08dcdfd47"><path d="M50.87 26.88H277.2v161.24H50.87z"/></clipPath></defs></svg>