<svg xmlns="http://www.w3.org/2000/svg" xmlns:xlink="http://www.w3.org/1999/xlink" width="614.4" height="460.8" viewBox="0 0 460.8 345.6" role="img" aria-labelledby="title-sleep-performance desc-sleep-performance">
  <title id="title-sleep-performance">Line chart of nightly sleep duration versus performance levels</title>
  <desc id="desc-sleep-performance">Line chart plots performance improving with more sleep: about 36% at 4 hours, 50% at 5, 64% at 6, 77% at 7, 86% at 8, and roughly 91% at 9 hours of rest.</desc><defs><style>*{stroke-linejoin:round;stroke-linecap:butt}</style></defs><g id="figure_1"><path id="patch_1" d="M0 345.6h460.8V0H0z" style="fill:#fff"/><g id="axes_1"><path id="patch_2" d="M57.6 307.584h357.12V41.472H57.6z" style="fill:#fff"/><g id="matplotlib.axis_1"><g id="xtick_1"><path id="line2d_1" d="M57.6 307.584V41.472" clip-path="url(#p291c98c7b6)" style="fill:none;stroke:#b0b0b0;stroke-width:.8;stroke-linecap:square"/><g id="line2d_2"><defs><path id="m25460c39a9" d="M0 0v3.5" style="stroke:#000;stroke-width:.8"/></defs><use xlink:href="#m25460c39a9" x="57.6" y="307.584" style="stroke:#000;stroke-width:.8"/></g><g id="text_1" transform="matrix(.1 0 0 -.1 54.419 322.182)"><defs><path id="DejaVuSans-34" d="M2419 4116 825 1625h1594zm-166 550h794V1625h666v-525h-666V0h-628v1100H313v609z" transform="scale(.01563)"/></defs><use xlink:href="#DejaVuSans-34"/></g></g><g id="xtick_2"><path id="line2d_3" d="M129.024 307.584V41.472" clip-path="url(#p291c98c7b6)" style="fill:none;stroke:#b0b0b0;stroke-width:.8;stroke-linecap:square"/><use xlink:href="#m25460c39a9" id="line2d_4" x="129.024" y="307.584" style="stroke:#000;stroke-width:.8"/><g id="text_2" transform="matrix(.1 0 0 -.1 125.843 322.182)"><defs><path id="DejaVuSans-35" d="M691 4666h2478v-532H1269V2991q137 47 274 70 138 23 276 23 781 0 1237-428 457-428 457-1159 0-753-469-1171Q2575-91 1722-91q-294 0-599 50Q819 9 494 109v635q281-153 581-228t634-75q541 0 856 284 316 284 316 772 0 487-316 771-315 285-856 285-253 0-505-56-251-56-513-175z" transform="scale(.01563)"/></defs><use xlink:href="#DejaVuSans-35"/></g></g><g id="xtick_3"><path id="line2d_5" d="M200.448 307.584V41.472" clip-path="url(#p291c98c7b6)" style="fill:none;stroke:#b0b0b0;stroke-width:.8;stroke-linecap:square"/><use xlink:href="#m25460c39a9" id="line2d_6" x="200.448" y="307.584" style="stroke:#000;stroke-width:.8"/><g id="text_3" transform="matrix(.1 0 0 -.1 197.267 322.182)"><defs><path id="DejaVuSans-36" d="M2113 2584q-425 0-674-291-248-290-248-796 0-503 248-796 249-292 674-292t673 292q248 293 248 796 0 506-248 796-248 291-673 291m1253 1979v-575q-238 112-480 171-242 60-480 60-625 0-955-422-329-422-376-1275 184 272 462 417 279 145 613 145 703 0 1111-427 408-426 408-1160 0-719-425-1154Q2819-91 2113-91q-810 0-1238 620-428 621-428 1799 0 1106 525 1764t1409 658q238 0 480-47t505-140" transform="scale(.01563)"/></defs><use xlink:href="#DejaVuSans-36"/></g></g><g id="xtick_4"><path id="line2d_7" d="M271.872 307.584V41.472" clip-path="url(#p291c98c7b6)" style="fill:none;stroke:#b0b0b0;stroke-width:.8;stroke-linecap:square"/><use xlink:href="#m25460c39a9" id="line2d_8" x="271.872" y="307.584" style="stroke:#000;stroke-width:.8"/><g id="text_4" transform="matrix(.1 0 0 -.1 268.69 322.182)"><defs><path id="DejaVuSans-37" d="M525 4666h3000v-269L1831 0h-659l1594 4134H525z" transform="scale(.01563)"/></defs><use xlink:href="#DejaVuSans-37"/></g></g><g id="xtick_5"><path id="line2d_9" d="M343.296 307.584V41.472" clip-path="url(#p291c98c7b6)" style="fill:none;stroke:#b0b0b0;stroke-width:.8;stroke-linecap:square"/><use xlink:href="#m25460c39a9" id="line2d_10" x="343.296" y="307.584" style="stroke:#000;stroke-width:.8"/><g id="text_5" transform="matrix(.1 0 0 -.1 340.115 322.182)"><defs><path id="DejaVuSans-38" d="M2034 2216q-450 0-708-241-257-241-257-662 0-422 257-663 258-241 708-241t709 242q260 243 260 662 0 421-258 662-257 241-711 241m-631 268q-406 100-633 378-226 279-226 679 0 559 398 884 399 325 1092 325 697 0 1094-325t397-884q0-400-227-679-226-278-629-378 456-106 710-416 255-309 255-755 0-679-414-1042Q2806-91 2034-91q-771 0-1186 362-414 363-414 1042 0 446 256 755 257 310 713 416m-231 997q0-362 226-565 227-203 636-203 407 0 636 203 230 203 230 565 0 363-230 566-229 203-636 203-409 0-636-203-226-203-226-566" transform="scale(.01563)"/></defs><use xlink:href="#DejaVuSans-38"/></g></g><g id="xtick_6"><path id="line2d_11" d="M414.72 307.584V41.472" clip-path="url(#p291c98c7b6)" style="fill:none;stroke:#b0b0b0;stroke-width:.8;stroke-linecap:square"/><use xlink:href="#m25460c39a9" id="line2d_12" x="414.72" y="307.584" style="stroke:#000;stroke-width:.8"/><g id="text_6" transform="matrix(.1 0 0 -.1 411.539 322.182)"><defs><path id="DejaVuSans-39" d="M703 97v575q238-113 481-172 244-59 479-59 625 0 954 420 330 420 377 1277-181-269-460-413-278-144-615-144-700 0-1108 423-408 424-408 1159 0 718 425 1152 425 435 1131 435 810 0 1236-621 427-620 427-1801 0-1103-524-1761Q2575-91 1691-91q-238 0-482 47Q966 3 703 97m1256 1978q425 0 673 290 249 291 249 798 0 503-249 795-248 292-673 292t-673-292-248-795q0-507 248-798 248-290 673-290" transform="scale(.01563)"/></defs><use xlink:href="#DejaVuSans-39"/></g></g><g id="text_7" transform="matrix(.1 0 0 -.1 206.032 335.86)"><defs><path id="DejaVuSans-53" d="M3425 4513v-616q-359 172-678 256-319 85-616 85-515 0-795-200t-280-569q0-310 186-468 186-157 705-254l381-78q706-135 1042-474t336-907q0-679-455-1029Q2797-91 1919-91q-331 0-705 75-373 75-773 222v650q384-215 753-325 369-109 725-109 540 0 834 212 294 213 294 607 0 343-211 537t-692 291l-385 75q-706 140-1022 440-315 300-315 835 0 619 436 975t1201 356q329 0 669-60 341-59 697-177" transform="scale(.01563)"/><path id="DejaVuSans-6c" d="M603 4863h575V0H603z" transform="scale(.01563)"/><path id="DejaVuSans-65" d="M3597 1894v-281H953q38-594 358-905t892-311q331 0 642 81t618 244V178Q3153 47 2828-22t-659-69q-838 0-1327 487-489 488-489 1320 0 859 464 1363 464 505 1252 505 706 0 1117-455 411-454 411-1235m-575 169q-6 471-264 752-258 282-683 282-481 0-770-272t-333-766z" transform="scale(.01563)"/><path id="DejaVuSans-70" d="M1159 525v-1856H581v4831h578v-531q182 312 458 463 277 152 661 152 638 0 1036-506 399-506 399-1331T3314 415Q2916-91 2278-91q-384 0-661 152-276 152-458 464m1957 1222q0 634-261 995t-717 361q-457 0-718-361t-261-995 261-995 718-361q456 0 717 361t261 995" transform="scale(.01563)"/><path id="DejaVuSans-48" d="M628 4666h631V2753h2294v1913h631V0h-631v2222H1259V0H628z" transform="scale(.01563)"/><path id="DejaVuSans-6f" d="M1959 3097q-462 0-731-361t-269-989 267-989q268-361 733-361 460 0 728 362 269 363 269 988 0 622-269 986-268 364-728 364m0 487q750 0 1178-488 429-487 429-1349 0-859-429-1349Q2709-91 1959-91q-753 0-1180 489-426 490-426 1349 0 862 426 1349 427 488 1180 488" transform="scale(.01563)"/><path id="DejaVuSans-75" d="M544 1381v2119h575V1403q0-497 193-746 194-248 582-248 465 0 735 297 271 297 271 810v1984h575V0h-575v538q-209-319-486-474-276-155-642-155-603 0-916 375-312 375-312 1097m1447 2203" transform="scale(.01563)"/><path id="DejaVuSans-72" d="M2631 2963q-97 56-211 82-114 27-251 27-488 0-749-317t-261-911V0H581v3500h578v-544q182 319 472 473 291 155 707 155 59 0 131-8 72-7 159-23z" transform="scale(.01563)"/><path id="DejaVuSans-73" d="M2834 3397v-544q-243 125-506 187-262 63-544 63-428 0-642-131t-214-394q0-200 153-314t616-217l197-44q612-131 870-370t258-667q0-488-386-773Q2250-91 1575-91q-281 0-586 55T347 128v594q319-166 628-249 309-82 613-82 406 0 624 139 219 139 219 392 0 234-158 359-157 125-692 241l-200 47q-534 112-772 345-237 233-237 639 0 494 350 762 350 269 994 269 318 0 599-47 282-46 519-140" transform="scale(.01563)"/></defs><use xlink:href="#DejaVuSans-53"/><use xlink:href="#DejaVuSans-6c" transform="translate(63.477)"/><use xlink:href="#DejaVuSans-65" transform="translate(91.26)"/><use xlink:href="#DejaVuSans-65" transform="translate(152.783)"/><use xlink:href="#DejaVuSans-70" transform="translate(214.307)"/><use xlink:href="#DejaVuSans-48" transform="translate(309.57)"/><use xlink:href="#DejaVuSans-6f" transform="translate(384.766)"/><use xlink:href="#DejaVuSans-75" transform="translate(445.947)"/><use xlink:href="#DejaVuSans-72" transform="translate(509.326)"/><use xlink:href="#DejaVuSans-73" transform="translate(550.44)"/></g></g><g id="matplotlib.axis_2"><g id="ytick_1"><path id="line2d_13" d="M57.6 307.584h357.12" clip-path="url(#p291c98c7b6)" style="fill:none;stroke:#b0b0b0;stroke-width:.8;stroke-linecap:square"/><g id="line2d_14"><defs><path id="m3be21fafb2" d="M0 0h-3.5" style="stroke:#000;stroke-width:.8"/></defs><use xlink:href="#m3be21fafb2" x="57.6" y="307.584" style="stroke:#000;stroke-width:.8"/></g><g id="text_8" transform="matrix(.1 0 0 -.1 44.237 311.383)"><defs><path id="DejaVuSans-30" d="M2034 4250q-487 0-733-480-245-479-245-1442 0-959 245-1439 246-480 733-480 491 0 736 480 246 480 246 1439 0 963-246 1442-245 480-736 480m0 500q785 0 1199-621 414-620 414-1801 0-1178-414-1799Q2819-91 2034-91q-784 0-1198 620-414 621-414 1799 0 1181 414 1801 414 621 1198 621" transform="scale(.01563)"/></defs><use xlink:href="#DejaVuSans-30"/></g></g><g id="ytick_2"><path id="line2d_15" d="M57.6 259.2h357.12" clip-path="url(#p291c98c7b6)" style="fill:none;stroke:#b0b0b0;stroke-width:.8;stroke-linecap:square"/><use xlink:href="#m3be21fafb2" id="line2d_16" x="57.6" y="259.2" style="stroke:#000;stroke-width:.8"/><g id="text_9" transform="matrix(.1 0 0 -.1 37.875 263)"><defs><path id="DejaVuSans-32" d="M1228 531h2203V0H469v531q359 372 979 998 621 627 780 809 303 340 423 576 121 236 121 464 0 372-261 606-261 235-680 235-297 0-627-103-329-103-704-313v638q381 153 712 231 332 78 607 78 725 0 1156-363 431-362 431-968 0-288-108-546-107-257-392-607-78-91-497-524-418-433-1181-1211" transform="scale(.01563)"/></defs><use xlink:href="#DejaVuSans-32"/><use xlink:href="#DejaVuSans-30" transform="translate(63.623)"/></g></g><g id="ytick_3"><path id="line2d_17" d="M57.6 210.816h357.12" clip-path="url(#p291c98c7b6)" style="fill:none;stroke:#b0b0b0;stroke-width:.8;stroke-linecap:square"/><use xlink:href="#m3be21fafb2" id="line2d_18" x="57.6" y="210.816" style="stroke:#000;stroke-width:.8"/><g id="text_10" transform="matrix(.1 0 0 -.1 37.875 214.615)"><use xlink:href="#DejaVuSans-34"/><use xlink:href="#DejaVuSans-30" transform="translate(63.623)"/></g></g><g id="ytick_4"><path id="line2d_19" d="M57.6 162.432h357.12" clip-path="url(#p291c98c7b6)" style="fill:none;stroke:#b0b0b0;stroke-width:.8;stroke-linecap:square"/><use xlink:href="#m3be21fafb2" id="line2d_20" x="57.6" y="162.432" style="stroke:#000;stroke-width:.8"/><g id="text_11" transform="matrix(.1 0 0 -.1 37.875 166.231)"><use xlink:href="#DejaVuSans-36"/><use xlink:href="#DejaVuSans-30" transform="translate(63.623)"/></g></g><g id="ytick_5"><path id="line2d_21" d="M57.6 114.048h357.12" clip-path="url(#p291c98c7b6)" style="fill:none;stroke:#b0b0b0;stroke-width:.8;stroke-linecap:square"/><use xlink:href="#m3be21fafb2" id="line2d_22" x="57.6" y="114.048" style="stroke:#000;stroke-width:.8"/><g id="text_12" transform="matrix(.1 0 0 -.1 37.875 117.847)"><use xlink:href="#DejaVuSans-38"/><use xlink:href="#DejaVuSans-30" transform="translate(63.623)"/></g></g><g id="ytick_6"><path id="line2d_23" d="M57.6 65.664h357.12" clip-path="url(#p291c98c7b6)" style="fill:none;stroke:#b0b0b0;stroke-width:.8;stroke-linecap:square"/><use xlink:href="#m3be21fafb2" id="line2d_24" x="57.6" y="65.664" style="stroke:#000;stroke-width:.8"/><g id="text_13" transform="matrix(.1 0 0 -.1 31.512 69.463)"><defs><path id="DejaVuSans-31" d="M794 531h1031v3560L703 3866v575l1116 225h631V531h1031V0H794z" transform="scale(.01563)"/></defs><use xlink:href="#DejaVuSans-31"/><use xlink:href="#DejaVuSans-30" transform="translate(63.623)"/><use xlink:href="#DejaVuSans-30" transform="translate(127.246)"/></g></g><g id="text_14" transform="matrix(0 -.1 -.1 0 25.433 216.451)"><defs><path id="DejaVuSans-50" d="M1259 4147V2394h794q441 0 681 228 241 228 241 650 0 419-241 647-240 228-681 228zm-631 519h1425q785 0 1186-355 402-355 402-1039 0-691-402-1044-401-353-1186-353h-794V0H628z" transform="scale(.01563)"/><path id="DejaVuSans-66" d="M2375 4863v-479h-550q-309 0-430-125-120-125-120-450v-309h947v-447h-947V0H697v3053H147v447h550v244q0 584 272 851 272 268 862 268z" transform="scale(.01563)"/><path id="DejaVuSans-6d" d="M3328 2828q216 388 516 572t706 184q547 0 844-383 297-382 297-1088V0h-578v2094q0 503-179 746-178 244-543 244-447 0-707-297-259-296-259-809V0h-578v2094q0 506-178 748t-550 242q-441 0-701-298-259-298-259-808V0H581v3500h578v-544q197 322 472 475t653 153q382 0 649-194 267-193 395-562" transform="scale(.01563)"/><path id="DejaVuSans-61" d="M2194 1759q-697 0-966-159t-269-544q0-306 202-486 202-179 548-179 479 0 768 339t289 901v128zm1147 238V0h-575v531q-197-318-491-470T1556-91q-537 0-855 302-317 302-317 808 0 590 395 890 396 300 1180 300h807v57q0 397-261 614t-733 217q-300 0-585-72-284-72-546-216v532q315 122 612 182 297 61 578 61 760 0 1135-394 375-393 375-1193" transform="scale(.01563)"/><path id="DejaVuSans-6e" d="M3513 2113V0h-575v2094q0 497-194 743-194 247-581 247-466 0-735-297-269-296-269-809V0H581v3500h578v-544q207 316 486 472 280 156 646 156 603 0 912-373 310-373 310-1098" transform="scale(.01563)"/><path id="DejaVuSans-63" d="M3122 3366v-538q-244 135-489 202t-495 67q-560 0-870-355-309-354-309-995t309-996q310-354 870-354 250 0 495 67t489 202V134Q2881 22 2623-34q-257-57-548-57-791 0-1257 497-465 497-465 1341 0 856 470 1346 471 491 1290 491 265 0 518-55 253-54 491-163" transform="scale(.01563)"/><path id="DejaVuSans-28" d="M1984 4856q-418-718-622-1422-203-703-203-1425 0-721 205-1429t620-1424h-500Q1016-109 783 600T550 2009q0 697 231 1403 232 707 703 1444z" transform="scale(.01563)"/><path id="DejaVuSans-25" d="M4653 2053q-272 0-427-231-154-231-154-644 0-406 154-639 155-233 427-233 266 0 420 233 155 233 155 639 0 410-155 642-154 233-420 233m0 397q494 0 784-344 291-343 291-928 0-584-292-927-292-342-783-342-500 0-791 342-290 343-290 927 0 588 292 930t789 342M1428 4353q-269 0-424-233-154-232-154-639 0-412 153-644 153-231 425-231t426 231q155 232 155 644 0 403-156 637-156 235-425 235m2822 397h500L1831-91h-500zm-2822 0q494 0 787-342 294-342 294-927 0-590-292-931t-789-341-786 342q-289 343-289 930 0 582 290 925 291 344 785 344" transform="scale(.01563)"/><path id="DejaVuSans-29" d="M513 4856h500q468-737 701-1444 233-706 233-1403 0-700-233-1409T1013-844H513q415 716 620 1424t205 1429q0 722-205 1425-205 704-620 1422" transform="scale(.01563)"/></defs><use xlink:href="#DejaVuSans-50"/><use xlink:href="#DejaVuSans-65" transform="translate(56.678)"/><use xlink:href="#DejaVuSans-72" transform="translate(118.201)"/><use xlink:href="#DejaVuSans-66" transform="translate(159.314)"/><use xlink:href="#DejaVuSans-6f" transform="translate(194.52)"/><use xlink:href="#DejaVuSans-72" transform="translate(255.701)"/><use xlink:href="#DejaVuSans-6d" transform="translate(295.064)"/><use xlink:href="#DejaVuSans-61" transform="translate(392.477)"/><use xlink:href="#DejaVuSans-6e" transform="translate(453.756)"/><use xlink:href="#DejaVuSans-63" transform="translate(517.135)"/><use xlink:href="#DejaVuSans-65" transform="translate(572.115)"/><use xlink:href="#DejaVuSans-28" transform="translate(665.426)"/><use xlink:href="#DejaVuSans-25" transform="translate(704.44)"/><use xlink:href="#DejaVuSans-29" transform="translate(799.459)"/></g></g><g id="line2d_25"><path d="m57.6 210.816 71.424-36.288 71.424-36.288 71.424-36.288 71.424-24.192 71.424-12.096" clip-path="url(#p291c98c7b6)" style="fill:none;stroke:#1f77b4;stroke-width:1.5;stroke-linecap:square"/><defs><path id="me3f5659a8b" d="M0 3a3 3 0 1 0 0-6 3 3 0 0 0 0 6z" style="stroke:#1f77b4"/></defs><g clip-path="url(#p291c98c7b6)"><use xlink:href="#me3f5659a8b" x="57.6" y="210.816" style="fill:#1f77b4;stroke:#1f77b4"/><use xlink:href="#me3f5659a8b" x="129.024" y="174.528" style="fill:#1f77b4;stroke:#1f77b4"/><use xlink:href="#me3f5659a8b" x="200.448" y="138.24" style="fill:#1f77b4;stroke:#1f77b4"/><use xlink:href="#me3f5659a8b" x="271.872" y="101.952" style="fill:#1f77b4;stroke:#1f77b4"/><use xlink:href="#me3f5659a8b" x="343.296" y="77.76" style="fill:#1f77b4;stroke:#1f77b4"/><use xlink:href="#me3f5659a8b" x="414.72" y="65.664" style="fill:#1f77b4;stroke:#1f77b4"/></g></g><path id="patch_3" d="M57.6 307.584V41.472" style="fill:none;stroke:#000;stroke-width:.8;stroke-linejoin:miter;stroke-linecap:square"/><path id="patch_4" d="M414.72 307.584V41.472" style="fill:none;stroke:#000;stroke-width:.8;stroke-linejoin:miter;stroke-linecap:square"/><path id="patch_5" d="M57.6 307.584h357.12" style="fill:none;stroke:#000;stroke-width:.8;stroke-linejoin:miter;stroke-linecap:square"/><path id="patch_6" d="M57.6 41.472h357.12" style="fill:none;stroke:#000;stroke-width:.8;stroke-linejoin:miter;stroke-linecap:square"/><g id="text_15" transform="matrix(.12 0 0 -.12 151.497 35.472)"><defs><path id="DejaVuSans-76" d="M191 3500h609L1894 563l1094 2937h609L2284 0h-781z" transform="scale(.01563)"/></defs><use xlink:href="#DejaVuSans-53"/><use xlink:href="#DejaVuSans-6c" transform="translate(63.477)"/><use xlink:href="#DejaVuSans-65" transform="translate(91.26)"/><use xlink:href="#DejaVuSans-65" transform="translate(152.783)"/><use xlink:href="#DejaVuSans-70" transform="translate(214.307)"/><use xlink:href="#DejaVuSans-48" transform="translate(309.57)"/><use xlink:href="#DejaVuSans-6f" transform="translate(384.766)"/><use xlink:href="#DejaVuSans-75" transform="translate(445.947)"/><use xlink:href="#DejaVuSans-72" transform="translate(509.326)"/><use xlink:href="#DejaVuSans-73" transform="translate(550.44)"/><use xlink:href="#DejaVuSans-76" transform="translate(634.326)"/><use xlink:href="#DejaVuSans-73" transform="translate(693.506)"/><use xlink:href="#DejaVuSans-50" transform="translate(777.393)"/><use xlink:href="#DejaVuSans-65" transform="translate(834.07)"/><use xlink:href="#DejaVuSans-72" transform="translate(895.594)"/><use xlink:href="#DejaVuSans-66" transform="translate(936.707)"/><use xlink:href="#DejaVuSans-6f" transform="translate(971.912)"/><use xlink:href="#DejaVuSans-72" transform="translate(1033.094)"/><use xlink:href="#DejaVuSans-6d" transform="translate(1072.457)"/><use xlink:href="#DejaVuSans-61" transform="translate(1169.87)"/><use xlink:href="#DejaVuSans-6e" transform="translate(1231.148)"/><use xlink:href="#DejaVuSans-63" transform="translate(1294.527)"/><use xlink:href="#DejaVuSans-65" transform="translate(1349.508)"/></g></g></g><defs><clipPath id="p291c98c7b6"><path d="M57.6 41.472h357.12v266.112H57.6z"/></clipPath></defs></svg>